HIERARCHY
ROOT Hips
{
	OFFSET 0.000000 100.481300 0.000000
	CHANNELS 6 Xposition Yposition Zposition Xrotation Yrotation Zrotation 
	JOINT Spine
	{
		OFFSET -0.279200 12.230698 -2.892100
		CHANNELS 3 Xrotation Yrotation Zrotation
		JOINT Spine1
		{
			OFFSET -0.232667 10.192268 -1.242267
			CHANNELS 3 Xrotation Yrotation Zrotation
			JOINT Spine1_split
			{
				OFFSET -0.232667 10.192268 -1.242267
				CHANNELS 3 Xrotation Yrotation Zrotation
				JOINT Spine2
				{
					OFFSET -0.232667 10.192268 -1.242267
					CHANNELS 3 Xrotation Yrotation Zrotation
					JOINT Neck
					{
						OFFSET -0.418800 17.814194 8.416900
						CHANNELS 3 Xrotation Yrotation Zrotation
						JOINT Head
						{
							OFFSET 0.000000 7.031097 3.806800
							CHANNELS 3 Xrotation Yrotation Zrotation
							JOINT HeadTop_End
							{
								OFFSET 0.000000 24.646606 12.978600
								CHANNELS 3 Xrotation Yrotation Zrotation
								End Site
								{
									OFFSET 0.000000 0.000000 0.000000
								}
							}
						}
					}
					JOINT LeftShoulder
					{
						OFFSET 8.476499 7.247704 -3.868750
						CHANNELS 3 Xrotation Yrotation Zrotation
						JOINT LeftShoulder_split
						{
							OFFSET 8.476499 7.247704 -3.868750
							CHANNELS 3 Xrotation Yrotation Zrotation
							JOINT LeftArm
							{
								OFFSET 9.308998 -2.777710 0.208600
								CHANNELS 3 Xrotation Yrotation Zrotation
								JOINT LeftForeArm
								{
									OFFSET 29.972298 0.000000 0.000000
									CHANNELS 3 Xrotation Yrotation Zrotation
									JOINT LeftHand
									{
										OFFSET 26.026505 0.000000 0.000000
										CHANNELS 3 Xrotation Yrotation Zrotation
										JOINT LeftHandThumb1
										{
											OFFSET 12.240501 -7.147949 9.207150
											CHANNELS 3 Xrotation Yrotation Zrotation
											JOINT LeftHandThumb2
											{
												OFFSET 4.138618 -2.389435 2.389433
												CHANNELS 3 Xrotation Yrotation Zrotation
												JOINT LeftHandThumb3
												{
													OFFSET 2.726913 -1.574387 1.574386
													CHANNELS 3 Xrotation Yrotation Zrotation
													JOINT LeftHandThumb4
													{
														OFFSET 3.941010 -2.275345 2.275342
														CHANNELS 3 Xrotation Yrotation Zrotation
														End Site
														{
															OFFSET 0.000000 0.000000 0.000000
														}
													}
												}
											}
										}
										JOINT LeftHandIndex1
										{
											OFFSET 24.424698 -1.985611 5.953459
											CHANNELS 3 Xrotation Yrotation Zrotation
											JOINT LeftHandIndex2
											{
												OFFSET 6.426697 0.000000 0.000000
												CHANNELS 3 Xrotation Yrotation Zrotation
												JOINT LeftHandIndex3
												{
													OFFSET 5.337898 0.000000 0.000000
													CHANNELS 3 Xrotation Yrotation Zrotation
													JOINT LeftHandIndex4
													{
														OFFSET 4.409401 0.000000 0.000000
														CHANNELS 3 Xrotation Yrotation Zrotation
														End Site
														{
															OFFSET 0.000000 0.000000 0.000000
														}
													}
												}
											}
										}
										JOINT LeftHandMiddle1
										{
											OFFSET 23.810104 0.000000 0.000000
											CHANNELS 3 Xrotation Yrotation Zrotation
											JOINT LeftHandMiddle2
											{
												OFFSET 7.176498 0.000000 0.000000
												CHANNELS 3 Xrotation Yrotation Zrotation
												JOINT LeftHandMiddle3
												{
													OFFSET 6.774902 0.000000 0.000000
													CHANNELS 3 Xrotation Yrotation Zrotation
													JOINT LeftHandMiddle4
													{
														OFFSET 5.403328 0.000000 0.000000
														CHANNELS 3 Xrotation Yrotation Zrotation
														End Site
														{
															OFFSET 0.000000 0.000000 0.000000
														}
													}
												}
											}
										}
										JOINT LeftHandRing1
										{
											OFFSET 22.908401 -0.839279 -6.020567
											CHANNELS 3 Xrotation Yrotation Zrotation
											JOINT LeftHandRing2
											{
												OFFSET 6.337502 0.000000 0.000000
												CHANNELS 3 Xrotation Yrotation Zrotation
												JOINT LeftHandRing3
												{
													OFFSET 5.779297 0.000000 0.000000
													CHANNELS 3 Xrotation Yrotation Zrotation
													JOINT LeftHandRing4
													{
														OFFSET 4.965698 0.000000 0.000000
														CHANNELS 3 Xrotation Yrotation Zrotation
														End Site
														{
															OFFSET 0.000000 0.000000 0.000000
														}
													}
												}
											}
										}
										JOINT LeftHandPinky1
										{
											OFFSET 20.037003 -1.530319 -10.950146
											CHANNELS 3 Xrotation Yrotation Zrotation
											JOINT LeftHandPinky2
											{
												OFFSET 5.254700 0.000000 0.000000
												CHANNELS 3 Xrotation Yrotation Zrotation
												JOINT LeftHandPinky3
												{
													OFFSET 4.810204 0.000000 0.000000
													CHANNELS 3 Xrotation Yrotation Zrotation
													JOINT LeftHandPinky4
													{
														OFFSET 3.647202 0.000000 0.000000
														CHANNELS 3 Xrotation Yrotation Zrotation
														End Site
														{
															OFFSET 0.000000 0.000000 0.000000
														}
													}
												}
											}
										}
									}
								}
							}
						}
					}
					JOINT RightShoulder
					{
						OFFSET -7.570500 7.247704 -3.868750
						CHANNELS 3 Xrotation Yrotation Zrotation
						JOINT RightShoulder_split
						{
							OFFSET -7.570500 7.247704 -3.868750
							CHANNELS 3 Xrotation Yrotation Zrotation
							JOINT RightArm
							{
								OFFSET -9.308998 -2.777710 0.208500
								CHANNELS 3 Xrotation Yrotation Zrotation
								JOINT RightForeArm
								{
									OFFSET -29.972300 0.000000 0.000000
									CHANNELS 3 Xrotation Yrotation Zrotation
									JOINT RightHand
									{
										OFFSET -26.026505 0.000000 0.000000
										CHANNELS 3 Xrotation Yrotation Zrotation
										JOINT RightHandThumb1
										{
											OFFSET -12.240601 -7.148026 9.207092
											CHANNELS 3 Xrotation Yrotation Zrotation
											JOINT RightHandThumb2
											{
												OFFSET -4.138618 -2.389435 2.389433
												CHANNELS 3 Xrotation Yrotation Zrotation
												JOINT RightHandThumb3
												{
													OFFSET -2.726974 -1.574417 1.574421
													CHANNELS 3 Xrotation Yrotation Zrotation
													JOINT RightHandThumb4
													{
														OFFSET -3.941010 -2.275345 2.275343
														CHANNELS 3 Xrotation Yrotation Zrotation
														End Site
														{
															OFFSET 0.000000 0.000000 0.000000
														}
													}
												}
											}
										}
										JOINT RightHandIndex1
										{
											OFFSET -24.424698 -1.985657 5.953444
											CHANNELS 3 Xrotation Yrotation Zrotation
											JOINT RightHandIndex2
											{
												OFFSET -6.426697 0.000000 0.000000
												CHANNELS 3 Xrotation Yrotation Zrotation
												JOINT RightHandIndex3
												{
													OFFSET -5.337898 0.000000 0.000000
													CHANNELS 3 Xrotation Yrotation Zrotation
													JOINT RightHandIndex4
													{
														OFFSET -4.409401 0.000000 0.000000
														CHANNELS 3 Xrotation Yrotation Zrotation
														End Site
														{
															OFFSET 0.000000 0.000000 0.000000
														}
													}
												}
											}
										}
										JOINT RightHandMiddle1
										{
											OFFSET -23.810097 0.000000 0.000000
											CHANNELS 3 Xrotation Yrotation Zrotation
											JOINT RightHandMiddle2
											{
												OFFSET -7.176498 0.000000 0.000000
												CHANNELS 3 Xrotation Yrotation Zrotation
												JOINT RightHandMiddle3
												{
													OFFSET -6.774902 0.000000 0.000000
													CHANNELS 3 Xrotation Yrotation Zrotation
													JOINT RightHandMiddle4
													{
														OFFSET -5.403328 0.000000 0.000000
														CHANNELS 3 Xrotation Yrotation Zrotation
														End Site
														{
															OFFSET 0.000000 0.000000 0.000000
														}
													}
												}
											}
										}
										JOINT RightHandRing1
										{
											OFFSET -22.908302 -0.839325 -6.020576
											CHANNELS 3 Xrotation Yrotation Zrotation
											JOINT RightHandRing2
											{
												OFFSET -6.337502 0.000000 0.000000
												CHANNELS 3 Xrotation Yrotation Zrotation
												JOINT RightHandRing3
												{
													OFFSET -5.779297 0.000000 0.000000
													CHANNELS 3 Xrotation Yrotation Zrotation
													JOINT RightHandRing4
													{
														OFFSET -4.965698 0.000000 0.000000
														CHANNELS 3 Xrotation Yrotation Zrotation
														End Site
														{
															OFFSET 0.000000 0.000000 0.000000
														}
													}
												}
											}
										}
										JOINT RightHandPinky1
										{
											OFFSET -20.037003 -1.530334 -10.950259
											CHANNELS 3 Xrotation Yrotation Zrotation
											JOINT RightHandPinky2
											{
												OFFSET -5.254700 0.000000 0.000000
												CHANNELS 3 Xrotation Yrotation Zrotation
												JOINT RightHandPinky3
												{
													OFFSET -4.810204 0.000000 0.000000
													CHANNELS 3 Xrotation Yrotation Zrotation
													JOINT RightHandPinky4
													{
														OFFSET -3.647202 0.000000 0.000000
														CHANNELS 3 Xrotation Yrotation Zrotation
														End Site
														{
															OFFSET 0.000000 0.000000 0.000000
														}
													}
												}
											}
										}
									}
								}
							}
						}
					}
				}
			}
		}
	}
	JOINT LeftUpLeg
	{
		OFFSET 15.427100 -6.655098 0.678600
		CHANNELS 3 Xrotation Yrotation Zrotation
		JOINT LeftLeg
		{
			OFFSET 4.081073 -39.591068 13.024000
			CHANNELS 3 Xrotation Yrotation Zrotation
			JOINT LeftFoot
			{
				OFFSET -4.081074 -37.707932 -15.979700
				CHANNELS 3 Xrotation Yrotation Zrotation
				JOINT LeftToeBase
				{
					OFFSET 5.346399 -15.068900 20.645000
					CHANNELS 3 Xrotation Yrotation Zrotation
					JOINT LeftToe_End
					{
						OFFSET 2.754700 0.931300 11.300900
						CHANNELS 3 Xrotation Yrotation Zrotation
						End Site
						{
							OFFSET 0.000000 0.000000 0.000000
						}
					}
				}
			}
		}
	}
	JOINT RightUpLeg
	{
		OFFSET -15.569500 -6.655098 0.678600
		CHANNELS 3 Xrotation Yrotation Zrotation
		JOINT RightLeg
		{
			OFFSET -4.081825 -39.591045 13.023800
			CHANNELS 3 Xrotation Yrotation Zrotation
			JOINT RightFoot
			{
				OFFSET 4.081824 -37.707954 -15.979600
				CHANNELS 3 Xrotation Yrotation Zrotation
				JOINT RightToeBase
				{
					OFFSET -5.346400 -15.068900 20.645000
					CHANNELS 3 Xrotation Yrotation Zrotation
					JOINT RightToe_End
					{
						OFFSET -2.754700 0.931300 11.300900
						CHANNELS 3 Xrotation Yrotation Zrotation
						End Site
						{
							OFFSET 0.000000 0.000000 0.000000
						}
					}
				}
			}
		}
	}
}
MOTION
Frames: 4
Frame Time: 0.016667
0.190718 75.645821 -2.955679 -14.106242 4.441276 -0.223162 20.019218 0.036265 0.680778 6.967090 -0.338069 0.675294 0.000000 0.000000 0.000000 6.967314 -0.337866 0.674353 -12.249459 -1.248218 -0.495995 -16.116728 -1.754206 -0.002254 0.000001 0.000000 -0.000000 3.082220 -9.945118 -6.811322 0.000000 0.000000 0.000000 -13.959269 -7.908218 -60.295264 69.634325 -63.509046 71.597144 17.167882 -2.491272 -13.648309 2.689278 3.159892 6.593326 -0.080953 21.143660 -2.539994 -0.000004 0.000006 0.000000 0.000001 0.000001 0.000000 -10.621164 2.937304 -19.267713 1.669114 6.188702 -21.755659 0.000004 0.000009 0.000001 0.000002 0.000002 0.000001 -13.823044 9.936963 -22.469203 6.048995 4.246412 -31.221969 0.000014 -0.000001 0.000010 -0.000001 -0.000003 -0.000001 -10.744683 8.325272 -36.571080 3.038167 0.221621 -39.078699 0.000009 0.000016 0.000005 0.000001 -0.000003 0.000001 -11.942413 9.095556 -39.265460 4.640671 -6.164085 -45.289308 -0.000001 -0.000000 0.000000 -0.000001 -0.000003 0.000001 8.709546 -2.418524 18.823141 0.000000 0.000000 0.000000 -21.494470 12.934328 56.855499 76.344153 65.516985 -70.724594 6.443806 -2.140709 3.544992 2.694443 -3.160165 -6.583867 -0.079167 -21.146013 2.540860 0.000003 0.000007 0.000006 -0.000000 0.000001 -0.000001 -10.621219 -2.937106 19.269101 1.668960 -6.188781 21.755276 -0.000004 -0.000014 0.000004 -0.000000 0.000002 0.000000 -13.688469 -10.244151 24.164205 6.044748 -4.250343 31.223356 0.000007 -0.000008 -0.000013 -0.000000 -0.000000 -0.000000 -10.744606 -8.325820 36.570021 3.042372 -0.220466 39.078760 0.000009 -0.000001 0.000001 -0.000001 0.000001 -0.000000 -11.872853 -9.179236 39.252001 4.640938 6.162611 45.288829 0.000003 0.000012 0.000006 0.000002 0.000001 -0.000002 -18.293279 -3.901655 17.147105 56.014921 -1.853724 -0.410183 -22.838916 -0.429967 -14.110511 -0.000066 -0.000002 0.000001 0.000000 -0.000001 -0.000000 -12.310997 -8.596146 -18.452644 55.363543 1.752798 0.303703 -27.403895 -5.066978 12.941173 -0.000085 0.000003 -0.000003 -0.000000 -0.000000 -0.000000 
0.197178 75.640274 -2.956890 -14.083456 4.454316 -0.235003 20.019192 0.036547 0.682580 6.967165 -0.337049 0.675000 0.000000 0.000000 0.000000 6.967387 -0.336798 0.673819 -12.274435 -1.249902 -0.501451 -16.104614 -1.759239 0.008366 -0.000001 0.000000 -0.000000 3.081948 -9.940217 -6.846194 0.000000 0.000000 0.000000 -13.919032 -8.007093 -60.186555 69.508410 -63.495242 71.476167 17.165992 -2.496277 -13.676330 2.740408 3.355900 6.651969 -0.304264 20.508148 -2.520036 -0.000007 0.000007 0.000005 -0.000003 -0.000000 0.000000 -10.843761 2.408697 -18.034235 1.583737 5.984701 -20.446043 0.000004 0.000008 0.000000 -0.000001 -0.000003 0.000000 -13.988348 9.479606 -21.637635 5.872533 4.134112 -30.142940 0.000014 -0.000004 0.000010 0.000000 0.000003 0.000000 -10.745592 7.991160 -35.808220 2.902345 0.024346 -37.900897 0.000010 0.000020 0.000005 -0.000000 0.000001 -0.000001 -11.884767 8.825178 -38.571755 4.536606 -6.270395 -44.699070 -0.000002 -0.000003 0.000000 -0.000001 0.000001 -0.000002 8.719990 -2.431948 18.863526 0.000000 0.000000 0.000000 -21.419383 13.027301 56.754128 76.284061 65.521554 -70.684309 6.443182 -2.129473 3.550584 2.691623 -3.150273 -6.581368 -0.140263 -20.912591 2.443734 0.000002 0.000009 0.000009 0.000003 -0.000001 0.000002 -10.723862 -2.678724 18.376250 1.607996 -6.040015 20.834092 -0.000003 -0.000011 0.000000 -0.000002 -0.000001 0.000002 -13.789853 -9.992672 23.322253 5.930032 -4.112800 30.347688 0.000007 -0.000014 -0.000016 -0.000001 -0.000002 -0.000000 -10.804171 -8.106032 35.619495 2.942599 -0.098414 38.315835 0.000007 -0.000004 0.000003 -0.000000 -0.000003 -0.000001 -11.920079 -8.998282 38.400440 4.514691 6.278569 44.542679 -0.000000 0.000008 0.000005 -0.000000 0.000000 -0.000000 -18.343489 -3.888326 17.151227 56.033065 -1.895412 -0.407698 -22.837916 -0.420874 -14.077466 -0.000066 -0.000002 0.000001 0.000000 -0.000000 -0.000000 -12.333952 -8.604076 -18.448479 55.366254 1.755573 0.304093 -27.403045 -5.073503 12.944941 -0.000085 0.000002 -0.000003 -0.000000 -0.000000 0.000000 
0.211853 75.631638 -2.958626 -14.048424 4.487496 -0.254546 20.019247 0.037162 0.686043 6.967762 -0.333988 0.674075 0.000000 0.000000 0.000000 6.967983 -0.333704 0.672075 -12.339807 -1.259015 -0.511593 -16.061072 -1.772782 0.024099 -0.000001 -0.000000 -0.000000 3.081505 -9.932722 -6.899784 0.000000 0.000000 0.000000 -13.772136 -8.303073 -59.856602 69.210614 -63.491157 71.193725 17.161969 -2.546407 -13.762107 2.843748 3.755983 6.771125 -0.770450 19.209924 -2.488545 -0.000008 0.000007 0.000001 -0.000001 0.000000 0.000003 -11.271547 1.302793 -15.505451 1.424468 5.551976 -17.730256 0.000005 0.000009 -0.000000 -0.000002 0.000000 -0.000001 -14.321383 8.535467 -19.931537 5.513420 3.887934 -27.908891 0.000013 -0.000001 0.000007 0.000000 -0.000001 -0.000002 -10.734821 7.300035 -34.231774 2.630241 -0.392183 -35.470709 0.000008 0.000024 0.000005 -0.000001 0.000002 -0.000000 -11.758242 8.260786 -37.125275 4.322567 -6.494796 -43.471924 -0.000002 -0.000002 -0.000002 -0.000000 0.000000 0.000000 8.739786 -2.465331 18.929304 0.000000 0.000000 0.000000 -21.199620 13.256775 56.475586 76.163897 65.580348 -70.597341 6.440256 -2.094181 3.595618 2.684931 -3.126731 -6.575407 -0.271182 -20.426820 2.250013 -0.000002 0.000007 0.000007 0.000004 -0.000001 -0.000002 -10.925242 -2.140290 16.541887 1.491015 -5.724722 18.914790 -0.000005 -0.000010 -0.000003 0.000001 0.000004 -0.000002 -13.991211 -9.467889 21.606991 5.700130 -3.821560 28.537073 0.000005 -0.000013 -0.000011 -0.000001 -0.000001 -0.000001 -10.911726 -7.639088 33.676705 2.742876 0.160240 36.738495 0.000011 -0.000004 0.000003 0.000001 0.000000 -0.000000 -12.003662 -8.605875 36.648975 4.261006 6.522143 43.011030 0.000001 0.000009 0.000005 0.000001 -0.000001 -0.000001 -18.430328 -3.868273 17.152987 56.065020 -1.969850 -0.403156 -22.834526 -0.408798 -14.014424 -0.000066 -0.000001 0.000001 0.000000 -0.000000 -0.000000 -12.362521 -8.624400 -18.445426 55.365766 1.759094 0.304987 -27.401578 -5.087498 12.956581 -0.000085 0.000002 -0.000003 -0.000000 -0.000000 -0.000000 
0.229221 75.629929 -2.954756 -14.042118 4.532581 -0.260173 20.019616 0.037574 0.687801 6.970447 -0.329656 0.671556 0.000000 0.000000 0.000000 6.970668 -0.329432 0.668393 -12.447041 -1.280076 -0.519118 -15.961775 -1.792115 0.025987 0.000000 0.000000 0.000000 3.083195 -9.935517 -6.902657 0.000000 0.000000 0.000000 -13.503008 -8.789849 -59.312379 68.869788 -63.545956 70.887207 17.160130 -2.676766 -13.924297 2.936500 4.117307 6.878265 -1.207030 18.029220 -2.472053 -0.000007 0.000006 -0.000001 -0.000002 0.000000 0.000000 -11.627922 0.244294 -13.176302 1.292639 5.132259 -15.152092 0.000005 0.000009 -0.000003 0.000002 -0.000000 0.000002 -14.610811 7.654073 -18.356427 5.188264 3.625277 -25.799313 0.000015 -0.000004 0.000009 -0.000002 0.000001 -0.000001 -10.691642 6.650382 -32.754592 2.397529 -0.806227 -33.196229 0.000008 0.000020 0.000004 -0.000000 -0.000001 -0.000000 -11.617401 7.716396 -35.737732 4.124012 -6.717360 -42.299283 -0.000002 -0.000000 -0.000002 -0.000000 0.000003 0.000001 8.752992 -2.509404 18.951113 0.000000 0.000000 0.000000 -20.864455 13.561958 56.069286 76.084373 65.725715 -70.530391 6.436099 -2.033730 3.726629 2.676287 -3.096395 -6.567720 -0.405707 -19.962990 2.085450 -0.000003 0.000011 0.000004 -0.000002 0.000002 0.000002 -11.113379 -1.627053 14.850571 1.387873 -5.417889 17.068585 -0.000002 -0.000009 0.000001 0.000002 0.000001 -0.000001 -14.172679 -8.971351 20.058901 5.490039 -3.541217 26.833409 0.000009 -0.000012 -0.000011 0.000000 0.000003 -0.000003 -10.985405 -7.177315 31.907748 2.563245 0.413054 35.256111 0.000009 -0.000005 0.000003 -0.000000 0.000002 0.000001 -12.051313 -8.201140 35.024414 4.032099 6.755005 41.602921 0.000002 0.000007 0.000005 -0.000001 -0.000001 0.000000 -18.467527 -3.872267 17.136342 56.082533 -2.005338 -0.400691 -22.833198 -0.412082 -13.972528 -0.000066 -0.000002 0.000001 -0.000000 -0.000000 0.000000 -12.344915 -8.654687 -18.458639 55.351095 1.758267 0.305852 -27.404012 -5.099797 12.977139 -0.000085 0.000003 -0.000003 0.000000 -0.000000 0.000000 
